
[code]
The Girl With A Dragon Tattoo 2011 DVDSCR XviD AC3-26K

Imdb: 
http://www.imdb.com/title/tt1568346/

Plot:
Journalist Mikael Blomkvist is aided in his search for a woman who has been missing for forty years by 

Lisbeth Salander, a young computer hacker.

Sources:
riskee NICE one :)

Notes:
WOW A DVDCSR SO SOON!!! added few filters to the video so enjoy.! thnxs to riskee ;)

Greetz:
Xtreme 

Encode|FYA|ILLUMANTI|CM8|RX|VISION|HDSCENE|NIGHTMAREZ|xTriLL|DTRG|CRYS|REMIXHD|BIDA|RX|REFILL|INSPiRAL|S

IC|ZOMBIESZ|HOPE|Anonymous
To all the people who have helped me :P you know who you are

Anything to offer email us @: 26k@hushmail.me

Video
ID                                       : 0
Format                                   : MPEG-4 Visual
Format profile                           : Advanced Simple@L5
Format settings, BVOP                    : 2
Format settings, QPel                    : No
Format settings, GMC                     : No warppoints
Format settings, Matrix                  : Default (H.263)
Codec ID                                 : XVID
Codec ID/Hint                            : XviD
Duration                                 : 2h 38mn
Bit rate                                 : 1 604 Kbps
Width                                    : 720 pixels
Height                                   : 304 pixels
Display aspect ratio                     : 2.35:1
Frame rate                               : 23.976 fps
Color space                              : YUV
Chroma subsampling                       : 4:2:0
Bit depth                                : 8 bits
Scan type                                : Progressive
Compression mode                         : Lossy
Bits/(Pixel*Frame)                       : 0.306
Stream size                              : 1.77 GiB (80%)
Writing library                          : XviD 63

Audio
ID                                       : 1
Format                                   : AC-3
Format/Info                              : Audio Coding 3
Mode extension                           : CM (complete main)
Codec ID                                 : 2000
Duration                                 : 2h 38mn
Bit rate mode                            : Constant
Bit rate                                 : 384 Kbps
Channel(s)                               : 6 channels
Channel positions                        : Front: L C R, Side: L R, LFE
Sampling rate                            : 48.0 KHz
Bit depth                                : 16 bits
Compression mode                         : Lossy
Stream size                              : 434 MiB (19%)
Alignment                                : Aligned on interleaves
Interleave, duration                     : 42 ms (1.00 video frame)

[/code]
Screens:
[img]http://img820.imageshack.us/img820/4738/girlll.jpg[/img]
[img]http://img840.imageshack.us/img840/5677/vlcsnap2012012313h04m40.png[/img]
[img]http://img688.imageshack.us/img688/8136/vlcsnap2012012313h04m44.png[/img]
[img]http://img525.imageshack.us/img525/3544/vlcsnap2012012313h04m51.png[/img]
[img]http://img94.imageshack.us/img94/1685/vlcsnap2012012313h04m56.png[/img]
[img]http://img823.imageshack.us/img823/2891/vlcsnap2012012313h05m00.png[/img]
[img]http://img339.imageshack.us/img339/2470/vlcsnap2012012313h05m11.png[/img]
[img]http://img221.imageshack.us/img221/2351/vlcsnap2012012313h05m17e.png[/img]


[img]http://img851.imageshack.us/img851/5503/26ks.jpg[/img]
Thank you smallz for banner!